<?xml version="1.0" standalone="no"?>
<!DOCTYPE svg PUBLIC "-//W3C//DTD SVG 20010904//EN"
 "http://www.w3.org/TR/2001/REC-SVG-20010904/DTD/svg10.dtd">
<svg version="1.0" xmlns="http://www.w3.org/2000/svg"
 width="250.000000pt" height="250.000000pt" viewBox="0 0 250.000000 250.000000"
 preserveAspectRatio="xMidYMid meet">

<g transform="translate(0.000000,250.000000) scale(0.100000,-0.100000)"
fill="#000000" stroke="none">
<path d="M1480 2306 c0 -9 5 -16 10 -16 6 0 10 4 10 9 0 6 -4 13 -10 16 -5 3
-10 -1 -10 -9z"/>
<path d="M1330 2279 c0 -5 5 -7 10 -4 6 3 10 8 10 11 0 2 -4 4 -10 4 -5 0 -10
-5 -10 -11z"/>
<path d="M1290 2260 c0 -5 5 -10 11 -10 5 0 7 5 4 10 -3 6 -8 10 -11 10 -2 0
-4 -4 -4 -10z"/>
<path d="M1440 2255 c7 -8 16 -12 21 -9 13 8 1 24 -18 24 -13 0 -13 -3 -3 -15z"/>
<path d="M1630 2256 c0 -8 5 -18 10 -21 6 -3 10 1 10 9 0 8 -4 18 -10 21 -5 3
-10 -1 -10 -9z"/>
<path d="M1506 2244 c-4 -10 -1 -14 6 -12 15 5 23 28 10 28 -5 0 -13 -7 -16
-16z"/>
<path d="M965 2220 c3 -5 8 -10 11 -10 2 0 4 5 4 10 0 6 -5 10 -11 10 -5 0 -7
-4 -4 -10z"/>
<path d="M1046 2215 c-3 -8 -1 -15 4 -15 6 0 10 7 10 15 0 8 -2 15 -4 15 -2 0
-6 -7 -10 -15z"/>
<path d="M1256 2216 c3 -9 11 -16 16 -16 13 0 5 23 -10 28 -7 2 -10 -2 -6 -12z"/>
<path d="M1450 2207 c0 -19 16 -31 24 -18 3 5 -1 14 -9 21 -12 10 -15 10 -15
-3z"/>
<path d="M1625 2210 c3 -5 11 -10 16 -10 6 0 7 5 4 10 -3 6 -11 10 -16 10 -6
0 -7 -4 -4 -10z"/>
<path d="M1765 2210 c-3 -5 -1 -10 4 -10 6 0 11 5 11 10 0 6 -2 10 -4 10 -3 0
-8 -4 -11 -10z"/>
<path d="M1086 2193 c-8 -24 -21 -30 -31 -13 -3 6 -11 10 -16 10 -6 0 3 -11
20 -25 17 -15 39 -50 50 -80 18 -47 19 -60 9 -114 -13 -70 -23 -74 -98 -40
-56 25 -77 44 -101 92 -17 31 -17 37 -4 37 8 0 15 9 15 20 0 18 -2 19 -20 8
-26 -17 -25 -25 8 -91 16 -31 26 -54 22 -52 -3 2 -12 -1 -20 -6 -11 -8 -8 -9
12 -6 17 3 48 -6 84 -24 31 -16 62 -29 69 -29 40 0 112 -140 95 -184 -17 -46
-21 -128 -10 -199 7 -41 11 -79 9 -85 -2 -6 -29 9 -59 32 -67 51 -81 91 -67
197 8 60 6 74 -10 106 -26 49 -73 86 -93 72 -13 -9 -12 -10 2 -6 24 8 68 -60
68 -104 0 -18 -8 -51 -18 -71 l-17 -38 -38 33 c-31 27 -39 42 -48 92 -6 32
-22 80 -35 105 -13 24 -24 49 -24 55 0 45 -24 88 -63 112 -23 15 -50 36 -60
47 -14 17 -16 18 -11 4 5 -14 0 -18 -22 -18 -22 0 -25 -3 -16 -12 9 -9 17 -10
30 -2 35 23 112 -65 112 -129 0 -17 -5 -18 -37 -12 -53 10 -140 8 -161 -4 -12
-7 1 -8 43 -5 73 5 150 -19 178 -57 12 -17 22 -53 27 -99 6 -57 13 -77 33 -98
l26 -27 -99 5 c-86 4 -102 8 -124 29 -23 22 -27 49 -5 36 12 -8 11 26 -1 45
-7 12 -11 8 -16 -18 -6 -31 -8 -32 -25 -16 -14 13 -16 20 -8 30 6 8 8 22 5 31
-6 14 -9 15 -16 4 -4 -8 -6 -21 -2 -29 4 -11 1 -13 -9 -7 -8 4 -11 5 -7 0 4
-4 0 -14 -10 -21 -16 -12 -16 -13 0 -14 9 0 18 5 20 12 2 6 19 -9 36 -33 18
-24 42 -49 54 -55 21 -11 18 -13 -32 -28 -29 -9 -67 -17 -84 -17 -24 -1 -26
-3 -8 -6 12 -2 61 3 108 13 147 29 262 9 283 -49 7 -19 0 -26 -63 -62 l-71
-40 -132 -3 c-79 -2 -146 0 -165 7 -29 10 -31 9 -15 -3 21 -16 54 -22 175 -32
l84 -6 -37 -38 c-21 -22 -51 -44 -67 -51 -16 -6 -27 -14 -24 -16 7 -8 78 27
126 62 49 36 176 95 205 95 25 0 88 -36 116 -67 15 -15 44 -55 65 -88 21 -33
58 -82 83 -110 l46 -49 -45 37 c-25 21 -46 33 -48 28 -2 -6 3 -42 12 -80 21
-93 21 -209 0 -240 -21 -29 -156 -91 -199 -91 -18 0 -45 -7 -61 -15 -16 -8
-49 -17 -74 -20 -68 -10 -92 -23 -127 -71 -41 -55 -22 -59 44 -9 26 19 53 33
62 31 46 -12 89 -15 117 -7 41 12 64 -3 64 -39 0 -16 5 -32 11 -35 6 -4 10 -1
8 6 -4 35 4 50 38 74 50 33 86 33 111 -3 10 -15 21 -34 24 -42 4 -11 7 -10 17
8 14 26 38 28 69 6 12 -8 22 -11 22 -6 0 6 -16 19 -35 31 -19 11 -35 27 -35
36 0 20 44 20 61 -1 7 -8 25 -22 40 -29 25 -13 29 -12 58 16 26 24 35 28 51
19 29 -15 25 -27 -17 -57 -21 -15 -51 -43 -68 -62 -29 -33 -29 -34 -5 -21 14
7 35 21 48 31 13 10 49 21 80 25 34 4 65 14 77 25 16 14 35 18 75 17 30 -1 74
0 96 2 35 4 47 -1 78 -28 57 -50 72 -41 31 17 -36 50 -40 52 -130 67 -22 4
-52 13 -67 20 -15 8 -41 14 -58 14 -56 0 -171 57 -218 108 -38 42 -79 102 -69
102 3 0 16 -18 31 -40 32 -49 51 -53 42 -7 -4 17 -11 66 -17 107 -8 59 -22 99
-65 185 -63 126 -114 304 -114 400 0 70 19 117 79 195 23 30 48 76 55 101 16
52 68 137 74 120 2 -6 11 -11 20 -11 13 0 13 2 -3 14 -18 13 -17 14 11 29 16
9 24 16 17 17 -7 0 -10 7 -7 15 6 14 8 13 21 -2 13 -17 13 -16 4 3 -5 11 -8
32 -5 45 4 20 3 19 -10 -6 -8 -16 -37 -56 -64 -87 l-49 -57 -29 86 c-33 99
-45 97 -15 -2 24 -77 25 -86 10 -140 l-12 -40 -12 50 c-7 27 -23 57 -35 67
-33 27 -45 22 -14 -5 23 -20 28 -34 32 -83 4 -55 2 -62 -29 -101 -36 -44 -49
-52 -49 -29 0 8 -18 38 -40 67 l-39 52 6 76 c5 71 3 80 -25 133 -17 32 -26 58
-20 60 6 2 8 13 6 23 -4 19 -5 18 -12 -2z"/>
<path d="M1315 2201 c-6 -11 9 -23 19 -14 9 9 7 23 -3 23 -6 0 -12 -4 -16 -9z"/>
<path d="M1492 2180 c0 -14 2 -19 5 -12 2 6 2 18 0 25 -3 6 -5 1 -5 -13z"/>
<path d="M955 2180 c-4 -6 5 -10 19 -10 14 0 26 5 26 10 0 6 -9 10 -19 10 -11
0 -23 -4 -26 -10z"/>
<path d="M1510 2180 c0 -5 5 -10 10 -10 6 0 10 5 10 10 0 6 -4 10 -10 10 -5 0
-10 -4 -10 -10z"/>
<path d="M1670 2180 c0 -5 4 -10 9 -10 6 0 13 5 16 10 3 6 -1 10 -9 10 -9 0
-16 -4 -16 -10z"/>
<path d="M1240 2173 c0 -4 5 -15 10 -23 7 -11 12 -12 21 -3 8 8 6 14 -10 22
-12 7 -21 8 -21 4z"/>
<path d="M1610 2165 c0 -8 4 -15 10 -15 5 0 7 7 4 15 -4 8 -8 15 -10 15 -2 0
-4 -7 -4 -15z"/>
<path d="M1336 2157 c-14 -10 -16 -16 -7 -22 15 -9 35 8 30 24 -3 8 -10 7 -23
-2z"/>
<path d="M1790 2160 c0 -5 5 -10 10 -10 6 0 10 5 10 10 0 6 -4 10 -10 10 -5 0
-10 -4 -10 -10z"/>
<path d="M860 2144 c0 -8 5 -12 10 -9 6 4 8 11 5 16 -9 14 -15 11 -15 -7z"/>
<path d="M1012 2153 c-6 -2 -10 -9 -6 -14 8 -14 31 -11 38 6 5 15 -7 18 -32 8z"/>
<path d="M1440 2140 c0 -19 3 -21 12 -12 9 9 9 15 0 24 -9 9 -12 7 -12 -12z"/>
<path d="M1564 2147 c3 -10 6 -27 6 -38 0 -10 5 -19 10 -19 15 0 11 33 -7 55
-14 18 -15 18 -9 2z"/>
<path d="M1740 2146 c0 -9 5 -16 10 -16 6 0 10 4 10 9 0 6 -4 13 -10 16 -5 3
-10 -1 -10 -9z"/>
<path d="M1125 2140 c-3 -5 -3 -15 1 -21 6 -11 23 6 24 24 0 10 -18 9 -25 -3z"/>
<path d="M1623 2121 c-33 -44 -45 -101 -33 -158 9 -39 8 -57 -5 -92 -8 -24
-15 -53 -15 -64 0 -19 -2 -19 -30 8 -16 15 -36 47 -44 69 -8 23 -15 33 -15 23
-1 -15 -4 -16 -22 -7 -27 15 -37 4 -16 -17 12 -13 19 -14 30 -4 12 9 15 6 20
-16 3 -16 21 -55 41 -87 52 -87 59 -162 17 -210 -9 -10 -50 -40 -93 -68 -42
-27 -79 -55 -82 -63 -10 -26 -22 -16 -34 30 -15 58 -7 77 61 147 30 30 61 66
67 79 l13 24 -27 -24 -26 -24 0 29 -1 29 -15 -35 c-17 -40 -37 -64 -77 -92
l-27 -20 -21 44 -20 43 7 -45 c5 -25 7 -67 6 -95 -3 -103 24 -236 65 -314 l38
-74 7 70 c9 86 40 172 73 203 20 18 28 21 37 12 7 -7 20 -12 29 -12 9 0 53
-25 99 -55 45 -30 98 -57 118 -61 21 -4 55 -17 78 -30 22 -13 49 -24 60 -24
13 0 8 6 -15 18 -19 9 -36 22 -38 27 -1 6 21 20 50 32 28 12 68 29 87 37 l35
15 -35 -6 c-19 -4 -59 -14 -89 -25 -67 -22 -100 -23 -145 -1 -40 19 -38 33 5
33 24 0 43 13 92 64 34 36 73 67 87 70 14 3 34 7 45 9 11 3 3 5 -17 6 -52 1
-85 -14 -140 -65 -40 -37 -53 -44 -89 -44 -25 0 -55 9 -77 22 -40 25 -42 23
62 54 41 12 70 29 96 56 28 29 52 43 104 57 38 10 76 27 85 36 15 17 15 17 -9
2 -14 -9 -43 -18 -65 -22 -22 -3 -50 -8 -62 -11 -22 -4 -23 -2 -23 79 0 94 10
115 61 133 19 7 26 13 16 13 -26 1 -75 -26 -87 -48 -5 -11 -10 -40 -10 -66 0
-70 -19 -133 -48 -155 -24 -20 -62 -32 -135 -45 l-38 -6 14 28 c24 47 29 88
17 154 -11 59 -10 63 12 84 13 13 63 35 111 50 71 22 97 36 135 72 l47 44 -54
-35 c-59 -40 -85 -46 -77 -18 2 9 8 36 11 59 7 41 25 70 25 39 0 -10 6 -13 15
-10 21 8 19 21 -5 27 -25 6 -37 -8 -48 -61 -16 -70 -34 -89 -99 -102 -32 -7
-64 -15 -72 -18 -28 -10 -2 59 42 115 84 108 97 126 97 136 0 5 -10 -3 -22
-19 -12 -16 -42 -50 -67 -77 l-46 -47 -12 32 c-18 52 -15 91 12 142 28 53 28
58 -2 17z"/>
<path d="M895 2128 c-4 -10 -11 -15 -16 -12 -5 3 -6 -2 -3 -10 5 -14 8 -14 21
-1 8 9 13 21 10 28 -3 8 -7 6 -12 -5z"/>
<path d="M1405 2117 c-4 -10 -3 -23 4 -30 16 -16 26 0 14 25 -10 21 -11 22
-18 5z"/>
<path d="M1500 2120 c0 -5 4 -10 9 -10 6 0 13 5 16 10 3 6 -1 10 -9 10 -9 0
-16 -4 -16 -10z"/>
<path d="M1650 2120 c0 -5 4 -10 9 -10 6 0 13 5 16 10 3 6 -1 10 -9 10 -9 0
-16 -4 -16 -10z"/>
<path d="M1040 2111 l-25 -7 22 -12 c26 -15 46 -16 38 -2 -3 6 -1 10 5 10 6 0
8 5 5 10 -7 11 -9 11 -45 1z"/>
<path d="M1720 2101 c0 -12 5 -21 10 -21 6 0 10 6 10 14 0 8 -4 18 -10 21 -5
3 -10 -3 -10 -14z"/>
<path d="M665 2100 c3 -5 8 -10 11 -10 2 0 4 5 4 10 0 6 -5 10 -11 10 -5 0 -7
-4 -4 -10z"/>
<path d="M1250 2106 c0 -3 7 -12 16 -20 19 -20 40 -11 23 10 -10 13 -39 20
-39 10z"/>
<path d="M1780 2100 c0 -5 6 -10 14 -10 8 0 18 5 21 10 3 6 -3 10 -14 10 -12
0 -21 -4 -21 -10z"/>
<path d="M710 2090 c0 -5 5 -10 10 -10 6 0 10 5 10 10 0 6 -4 10 -10 10 -5 0
-10 -4 -10 -10z"/>
<path d="M835 2090 c3 -5 13 -10 21 -10 8 0 14 5 14 10 0 6 -9 10 -21 10 -11
0 -17 -4 -14 -10z"/>
<path d="M1360 2081 c-14 -27 -13 -30 8 -27 9 2 18 13 20 24 4 27 -14 29 -28
3z"/>
<path d="M660 2065 c7 -8 17 -12 22 -9 6 4 5 10 -3 15 -22 14 -33 10 -19 -6z"/>
<path d="M735 2067 c-4 -10 -5 -21 -1 -24 10 -10 18 4 13 24 -4 17 -4 17 -12
0z"/>
<path d="M1202 2058 c17 -26 37 -35 34 -16 -3 22 -17 38 -33 38 -14 0 -14 -2
-1 -22z"/>
<path d="M1625 2071 c-6 -11 9 -23 19 -14 9 9 7 23 -3 23 -6 0 -12 -4 -16 -9z"/>
<path d="M1690 2063 c0 -12 5 -25 10 -28 13 -8 13 15 0 35 -8 12 -10 11 -10
-7z"/>
<path d="M946 2042 c-4 -13 -5 -26 -2 -29 10 -11 18 4 14 29 l-4 23 -8 -23z"/>
<path d="M1039 2042 c13 -25 49 -38 64 -23 15 15 0 27 -41 36 -32 7 -33 6 -23
-13z"/>
<path d="M1542 2037 c3 -24 21 -27 26 -4 2 8 -4 17 -13 21 -13 4 -16 1 -13
-17z"/>
<path d="M1817 2054 c-4 -4 -7 -14 -7 -23 0 -11 3 -12 11 -4 6 6 10 16 7 23
-2 6 -7 8 -11 4z"/>
<path d="M1860 2049 c0 -5 5 -7 10 -4 6 3 10 8 10 11 0 2 -4 4 -10 4 -5 0 -10
-5 -10 -11z"/>
<path d="M766 2035 c-3 -9 0 -15 9 -15 8 0 15 7 15 15 0 8 -4 15 -9 15 -5 0
-11 -7 -15 -15z"/>
<path d="M850 2046 c0 -2 7 -6 15 -10 8 -3 15 -1 15 4 0 6 -7 10 -15 10 -8 0
-15 -2 -15 -4z"/>
<path d="M1291 2029 c8 -16 14 -18 22 -10 9 9 8 14 -3 21 -24 16 -31 11 -19
-11z"/>
<path d="M1760 2040 c0 -5 6 -10 14 -10 8 0 18 5 21 10 3 6 -3 10 -14 10 -12
0 -21 -4 -21 -10z"/>
<path d="M1477 2026 c-3 -8 -2 -18 3 -21 13 -8 20 9 11 24 -6 10 -10 9 -14 -3z"/>
<path d="M815 2017 c-4 -10 -5 -21 -1 -24 10 -10 18 4 13 24 -4 17 -4 17 -12
0z"/>
<path d="M1631 2016 c-11 -13 -11 -20 -3 -28 15 -15 24 -5 20 23 -3 21 -4 21
-17 5z"/>
<path d="M1165 2007 c-12 -9 -14 -16 -7 -21 6 -3 16 3 22 14 13 24 10 25 -15
7z"/>
<path d="M1868 2013 c7 -3 16 -2 19 1 4 3 -2 6 -13 5 -11 0 -14 -3 -6 -6z"/>
<path d="M867 1999 c10 -10 9 -17 -8 -35 -25 -27 -20 -65 6 -44 8 7 15 24 15
37 0 19 4 24 16 19 11 -4 14 -1 12 12 -2 9 -14 18 -28 20 -20 3 -23 1 -13 -9z"/>
<path d="M976 1991 c-4 -7 -5 -15 -2 -18 9 -9 19 4 14 18 -4 11 -6 11 -12 0z"/>
<path d="M725 1980 c-3 -5 1 -10 9 -10 9 0 16 5 16 10 0 6 -4 10 -9 10 -6 0
-13 -4 -16 -10z"/>
<path d="M1015 1978 c-10 -25 -3 -39 14 -29 10 6 11 13 3 27 -10 18 -11 18
-17 2z"/>
<path d="M1062 1966 c2 -19 9 -30 21 -32 22 -3 22 8 -3 37 l-20 24 2 -29z"/>
<path d="M1215 1980 c3 -5 13 -10 21 -10 8 0 14 5 14 10 0 6 -9 10 -21 10 -11
0 -17 -4 -14 -10z"/>
<path d="M1720 1980 c0 -5 9 -10 19 -10 11 0 23 5 26 10 4 6 -5 10 -19 10 -14
0 -26 -4 -26 -10z"/>
<path d="M1895 1977 c-4 -10 -5 -21 -1 -24 10 -10 18 4 13 24 -4 17 -4 17 -12
0z"/>
<path d="M1442 1969 c2 -7 10 -15 17 -17 8 -3 12 1 9 9 -2 7 -10 15 -17 17 -8
3 -12 -1 -9 -9z"/>
<path d="M1542 1958 c2 -11 11 -22 21 -24 21 -3 22 10 1 30 -21 21 -26 20 -22
-6z"/>
<path d="M1505 1957 c-4 -10 -5 -21 -1 -24 10 -10 18 4 13 24 -4 17 -4 17 -12
0z"/>
<path d="M1970 1960 c0 -5 6 -10 14 -10 8 0 18 5 21 10 3 6 -3 10 -14 10 -12
0 -21 -4 -21 -10z"/>
<path d="M1835 1948 c-10 -26 2 -55 17 -40 8 8 8 18 1 34 -10 21 -12 21 -18 6z"/>
<path d="M737 1930 c7 -28 26 -41 43 -29 13 8 11 13 -9 29 -30 25 -41 25 -34
0z"/>
<path d="M1168 1936 c-22 -21 -23 -32 -3 -40 17 -6 29 13 23 40 -3 17 -4 17
-20 0z"/>
<path d="M1388 1938 c9 -9 15 -9 24 0 9 9 7 12 -12 12 -19 0 -21 -3 -12 -12z"/>
<path d="M682 1923 c2 -10 11 -19 21 -21 24 -5 21 15 -4 28 -18 10 -20 9 -17
-7z"/>
<path d="M1230 1932 c0 -5 6 -17 14 -28 12 -16 17 -17 28 -6 11 11 10 16 -6
28 -22 16 -36 18 -36 6z"/>
<path d="M1680 1930 c0 -5 9 -10 20 -10 11 0 20 5 20 10 0 6 -9 10 -20 10 -11
0 -20 -4 -20 -10z"/>
<path d="M1736 1914 c-7 -18 0 -34 15 -34 12 0 12 37 0 44 -5 3 -12 -1 -15
-10z"/>
<path d="M632 1911 c4 -13 18 -16 19 -4 0 4 -5 9 -11 12 -7 2 -11 -2 -8 -8z"/>
<path d="M888 1893 c-10 -11 -18 -27 -18 -35 0 -21 34 -16 38 5 2 10 2 24 0
33 -3 14 -5 14 -20 -3z"/>
<path d="M945 1900 c-3 -5 -1 -10 4 -10 6 0 11 5 11 10 0 6 -2 10 -4 10 -3 0
-8 -4 -11 -10z"/>
<path d="M1910 1900 c0 -5 9 -10 19 -10 11 0 23 5 26 10 4 6 -5 10 -19 10 -14
0 -26 -4 -26 -10z"/>
<path d="M585 1890 c3 -5 10 -10 16 -10 5 0 9 5 9 10 0 6 -7 10 -16 10 -8 0
-12 -4 -9 -10z"/>
<path d="M1370 1890 c0 -5 6 -10 14 -10 8 0 18 5 21 10 3 6 -3 10 -14 10 -12
0 -21 -4 -21 -10z"/>
<path d="M1520 1883 c0 -26 16 -47 29 -39 17 11 13 34 -9 46 -17 9 -20 8 -20
-7z"/>
<path d="M2035 1890 c-3 -5 -2 -10 4 -10 5 0 13 5 16 10 3 6 2 10 -4 10 -5 0
-13 -4 -16 -10z"/>
<path d="M977 1883 c-13 -12 -7 -40 8 -40 8 0 15 5 15 11 0 17 -16 37 -23 29z"/>
<path d="M1646 1877 c-18 -13 -18 -14 -1 -21 12 -4 26 0 39 14 l20 20 -20 0
c-11 0 -28 -6 -38 -13z"/>
<path d="M558 1873 c7 -3 16 -2 19 1 4 3 -2 6 -13 5 -11 0 -14 -3 -6 -6z"/>
<path d="M1020 1870 c0 -5 6 -10 14 -10 8 0 18 5 21 10 3 6 -3 10 -14 10 -12
0 -21 -4 -21 -10z"/>
<path d="M1976 1871 c-4 -7 -5 -15 -2 -18 9 -9 19 4 14 18 -4 11 -6 11 -12 0z"/>
<path d="M1216 1854 c-10 -26 -7 -41 9 -41 10 0 15 10 15 29 0 30 -14 38 -24
12z"/>
<path d="M1915 1861 c-3 -5 -1 -12 5 -16 5 -3 10 1 10 9 0 18 -6 21 -15 7z"/>
<path d="M620 1845 c-18 -21 -3 -32 16 -13 10 9 12 18 6 22 -5 3 -15 -1 -22
-9z"/>
<path d="M930 1850 c0 -5 5 -10 11 -10 5 0 7 5 4 10 -3 6 -8 10 -11 10 -2 0
-4 -4 -4 -10z"/>
<path d="M1080 1845 c-10 -13 -9 -15 9 -15 12 0 21 6 21 15 0 8 -4 15 -9 15
-5 0 -14 -7 -21 -15z"/>
<path d="M1427 1846 c-3 -8 -2 -18 3 -21 13 -8 24 15 12 27 -6 6 -11 4 -15 -6z"/>
<path d="M1846 1845 c-3 -9 0 -15 9 -15 8 0 15 7 15 15 0 8 -4 15 -9 15 -5 0
-11 -7 -15 -15z"/>
<path d="M690 1829 c-7 -11 -9 -23 -6 -26 9 -9 57 27 51 37 -10 17 -34 11 -45
-11z"/>
<path d="M546 1824 c-4 -10 -1 -14 6 -12 15 5 23 28 10 28 -5 0 -13 -7 -16
-16z"/>
<path d="M1017 1833 c-13 -12 -7 -33 8 -33 8 0 15 9 15 20 0 20 -11 26 -23 13z"/>
<path d="M1340 1830 c0 -13 20 -13 40 0 12 8 9 10 -12 10 -16 0 -28 -4 -28
-10z"/>
<path d="M2010 1830 c0 -5 5 -10 10 -10 6 0 10 5 10 10 0 6 -4 10 -10 10 -5 0
-10 -4 -10 -10z"/>
<path d="M905 1807 c-4 -10 -5 -21 -1 -24 10 -10 18 4 13 24 -4 17 -4 17 -12
0z"/>
<path d="M1472 1804 c9 -9 21 -13 28 -9 14 9 -5 25 -30 25 -12 0 -12 -3 2 -16z"/>
<path d="M1945 1810 c-4 -6 3 -10 14 -10 25 0 27 6 6 13 -8 4 -17 2 -20 -3z"/>
<path d="M762 1802 c-9 -6 -5 -12 13 -20 29 -13 45 -8 45 14 0 15 -37 19 -58
6z"/>
<path d="M1062 1798 c-17 -17 -15 -38 3 -38 9 0 15 9 15 25 0 29 -1 30 -18 13z"/>
<path d="M1115 1800 c3 -5 10 -10 16 -10 5 0 9 5 9 10 0 6 -7 10 -16 10 -8 0
-12 -4 -9 -10z"/>
<path d="M1400 1791 c0 -12 5 -21 10 -21 6 0 10 6 10 14 0 8 -4 18 -10 21 -5
3 -10 -3 -10 -14z"/>
<path d="M1780 1791 c0 -12 5 -21 10 -21 6 0 10 6 10 14 0 8 -4 18 -10 21 -5
3 -10 -3 -10 -14z"/>
<path d="M1710 1790 c0 -5 6 -10 14 -10 8 0 18 5 21 10 3 6 -3 10 -14 10 -12
0 -21 -4 -21 -10z"/>
<path d="M1870 1790 c0 -5 9 -10 20 -10 11 0 20 5 20 10 0 6 -9 10 -20 10 -11
0 -20 -4 -20 -10z"/>
<path d="M955 1780 c3 -5 10 -10 16 -10 5 0 9 5 9 10 0 6 -7 10 -16 10 -8 0
-12 -4 -9 -10z"/>
<path d="M1297 1773 c-14 -13 -6 -23 17 -23 30 0 42 15 20 24 -20 8 -29 8 -37
-1z"/>
<path d="M1460 1770 c-8 -5 -11 -12 -7 -16 4 -4 13 -2 19 4 15 15 7 24 -12 12z"/>
<path d="M1500 1761 c0 -5 7 -11 15 -15 9 -3 15 0 15 9 0 8 -7 15 -15 15 -8 0
-15 -4 -15 -9z"/>
<path d="M959 1742 c14 -27 30 -37 41 -26 13 13 -1 30 -28 39 -21 6 -23 5 -13
-13z"/>
<path d="M1431 1744 c0 -11 3 -14 6 -6 3 7 2 16 -1 19 -3 4 -6 -2 -5 -13z"/>
<path d="M1649 1758 c-12 -41 6 -51 36 -18 18 20 17 20 -8 20 -15 0 -27 -1
-28 -2z"/>
<path d="M580 1736 c0 -9 5 -16 10 -16 6 0 10 4 10 9 0 6 -4 13 -10 16 -5 3
-10 -1 -10 -9z"/>
<path d="M910 1740 c0 -5 5 -10 10 -10 6 0 10 5 10 10 0 6 -4 10 -10 10 -5 0
-10 -4 -10 -10z"/>
<path d="M1130 1741 c0 -5 6 -14 14 -20 10 -9 15 -8 19 3 3 8 3 17 0 20 -9 9
-33 7 -33 -3z"/>
<path d="M1380 1733 c0 -25 15 -38 25 -22 4 6 0 18 -9 27 -15 15 -16 15 -16
-5z"/>
<path d="M1750 1728 c0 -33 27 -58 36 -33 4 10 -1 25 -15 38 l-21 21 0 -26z"/>
<path d="M1865 1737 c-10 -8 -15 -19 -11 -26 9 -14 22 -7 36 20 12 22 2 25
-25 6z"/>
<path d="M540 1730 c0 -5 5 -10 11 -10 5 0 7 5 4 10 -3 6 -8 10 -11 10 -2 0
-4 -4 -4 -10z"/>
<path d="M770 1730 c0 -16 43 -29 57 -18 7 6 10 14 7 19 -7 13 -64 11 -64 -1z"/>
<path d="M1085 1726 c-16 -12 -18 -17 -7 -27 15 -16 36 1 30 25 -3 15 -5 15
-23 2z"/>
<path d="M1275 1720 c-3 -5 -1 -10 4 -10 6 0 11 5 11 10 0 6 -2 10 -4 10 -3 0
-8 -4 -11 -10z"/>
<path d="M1505 1719 c-12 -19 5 -23 22 -6 16 16 16 17 1 17 -9 0 -20 -5 -23
-11z"/>
<path d="M2010 1720 c0 -5 5 -10 11 -10 5 0 7 5 4 10 -3 6 -8 10 -11 10 -2 0
-4 -4 -4 -10z"/>
<path d="M940 1702 c0 -10 6 -27 14 -38 11 -15 17 -16 27 -7 15 15 6 39 -20
53 -18 9 -21 8 -21 -8z"/>
<path d="M2060 1700 c0 -5 7 -7 15 -4 8 4 15 8 15 10 0 2 -7 4 -15 4 -8 0 -15
-4 -15 -10z"/>
<path d="M508 1693 c7 -3 16 -2 19 1 4 3 -2 6 -13 5 -11 0 -14 -3 -6 -6z"/>
<path d="M550 1690 c0 -5 4 -10 9 -10 6 0 13 5 16 10 3 6 -1 10 -9 10 -9 0
-16 -4 -16 -10z"/>
<path d="M1661 1684 c-21 -15 -22 -18 -6 -27 18 -10 35 5 35 31 0 15 -1 15
-29 -4z"/>
<path d="M1980 1686 c0 -9 5 -16 10 -16 6 0 10 4 10 9 0 6 -4 13 -10 16 -5 3
-10 -1 -10 -9z"/>
<path d="M1350 1671 c0 -12 6 -21 15 -21 8 0 15 4 15 9 0 5 -7 14 -15 21 -13
10 -15 9 -15 -9z"/>
<path d="M1930 1671 c-13 -26 -13 -31 5 -31 9 0 15 9 15 25 0 30 -6 32 -20 6z"/>
<path d="M770 1660 c15 -28 40 -50 56 -50 8 0 13 4 10 9 -4 5 0 11 6 14 21 7
-4 27 -46 37 -32 7 -35 6 -26 -10z"/>
<path d="M1128 1668 c9 -9 15 -9 24 0 9 9 7 12 -12 12 -19 0 -21 -3 -12 -12z"/>
<path d="M1522 1651 c2 -24 8 -35 21 -37 23 -3 22 18 -3 47 l-20 24 2 -34z"/>
<path d="M1310 1651 c-14 -27 -13 -38 5 -38 10 0 15 10 15 29 0 33 -5 35 -20
9z"/>
<path d="M1470 1660 c0 -5 4 -10 9 -10 6 0 13 5 16 10 3 6 -1 10 -9 10 -9 0
-16 -4 -16 -10z"/>
<path d="M1872 1663 c-13 -3 -21 -10 -19 -16 6 -20 25 -19 37 2 6 12 9 20 8
20 -2 -1 -13 -4 -26 -6z"/>
<path d="M720 1645 c0 -31 13 -45 30 -35 13 8 11 13 -7 32 -22 21 -23 22 -23
3z"/>
<path d="M1087 1640 c-25 -20 -40 -49 -18 -36 5 4 11 1 13 -6 3 -8 12 -2 22
14 25 39 16 54 -17 28z"/>
<path d="M2038 1648 c9 -9 15 -9 24 0 9 9 7 12 -12 12 -19 0 -21 -3 -12 -12z"/>
<path d="M1236 1636 c3 -9 11 -16 16 -16 13 0 5 23 -10 28 -7 2 -10 -2 -6 -12z"/>
<path d="M1730 1619 c0 -25 4 -36 15 -36 23 0 26 24 5 49 l-19 23 -1 -36z"/>
<path d="M605 1630 c3 -5 13 -10 21 -10 8 0 14 5 14 10 0 6 -9 10 -21 10 -11
0 -17 -4 -14 -10z"/>
<path d="M2000 1605 c0 -17 18 -19 38 -6 11 7 10 10 -3 15 -26 10 -35 7 -35
-9z"/>
<path d="M452 1601 c4 -13 18 -16 19 -4 0 4 -5 9 -11 12 -7 2 -11 -2 -8 -8z"/>
<path d="M1418 1598 c9 -9 15 -9 24 0 9 9 7 12 -12 12 -19 0 -21 -3 -12 -12z"/>
<path d="M1460 1577 c0 -26 4 -33 20 -34 23 -2 26 23 6 50 -19 25 -26 21 -26
-16z"/>
<path d="M1660 1591 c-14 -27 -9 -43 13 -47 19 -2 23 30 8 55 -7 11 -11 9 -21
-8z"/>
<path d="M500 1585 c0 -8 4 -15 10 -15 5 0 7 7 4 15 -4 8 -8 15 -10 15 -2 0
-4 -7 -4 -15z"/>
<path d="M626 1584 c-9 -8 -20 -12 -26 -9 -5 3 -10 2 -10 -4 0 -15 18 -23 25
-11 3 5 19 10 35 10 22 0 28 4 24 15 -8 19 -28 19 -48 -1z"/>
<path d="M540 1577 c0 -19 16 -31 24 -18 3 5 -1 14 -9 21 -12 10 -15 10 -15
-3z"/>
<path d="M1230 1579 c0 -22 13 -36 33 -36 22 0 17 16 -11 35 -18 12 -22 12
-22 1z"/>
<path d="M1123 1563 c9 -9 19 -14 23 -11 10 10 -6 28 -24 28 -15 0 -15 -1 1
-17z"/>
<path d="M1881 1556 c-11 -13 -11 -20 -3 -28 8 -8 13 -7 18 5 10 27 0 41 -15
23z"/>
<path d="M1951 1561 c-7 -5 -10 -14 -6 -20 5 -9 10 -9 21 0 26 22 14 38 -15
20z"/>
<path d="M460 1550 c0 -5 7 -10 15 -10 8 0 15 5 15 10 0 6 -7 10 -15 10 -8 0
-15 -4 -15 -10z"/>
<path d="M1383 1548 c-22 -27 -19 -67 5 -64 19 3 28 38 14 61 -7 13 -11 14
-19 3z"/>
<path d="M761 1526 c-18 -45 6 -49 30 -4 7 12 7 18 1 14 -6 -3 -12 0 -15 6 -3
7 -10 0 -16 -16z"/>
<path d="M1100 1524 c0 -29 29 -83 30 -56 0 7 5 10 10 7 21 -13 9 33 -15 55
l-25 23 0 -29z"/>
<path d="M2010 1535 c0 -8 4 -15 9 -15 5 0 14 7 21 15 10 13 9 15 -9 15 -12 0
-21 -6 -21 -15z"/>
<path d="M420 1527 c0 -7 6 -22 14 -33 14 -18 15 -18 21 -1 7 17 -10 47 -26
47 -5 0 -9 -6 -9 -13z"/>
<path d="M1810 1521 c-13 -26 -13 -31 5 -31 9 0 15 9 15 25 0 30 -6 32 -20 6z"/>
<path d="M505 1520 c-3 -5 3 -10 14 -10 12 0 21 5 21 10 0 6 -6 10 -14 10 -8
0 -18 -4 -21 -10z"/>
<path d="M671 1517 c-7 -9 -11 -25 -9 -37 l3 -21 23 21 c21 20 31 47 13 36 -5
-4 -11 -1 -13 5 -2 7 -8 6 -17 -4z"/>
<path d="M856 1517 l-30 -13 24 -17 c26 -18 80 -23 80 -8 0 5 -6 12 -12 14 -7
3 -4 6 7 7 20 1 20 1 1 15 -24 18 -32 18 -70 2z"/>
<path d="M580 1500 c-8 -16 -8 -20 3 -20 18 0 39 24 30 33 -11 12 -22 8 -33
-13z"/>
<path d="M1940 1490 c0 -13 28 -25 38 -16 3 4 0 11 -8 16 -20 13 -30 12 -30 0z"/>
<path d="M487 1483 c-12 -12 -7 -33 8 -33 17 0 19 9 7 28 -5 7 -11 9 -15 5z"/>
<path d="M2017 1483 c-8 -7 11 -33 23 -33 5 0 6 9 3 20 -5 20 -15 25 -26 13z"/>
<path d="M2077 1484 c-11 -11 3 -24 25 -24 17 0 18 2 8 15 -13 16 -23 19 -33
9z"/>
<path d="M1715 1460 c-14 -15 -16 -23 -7 -32 14 -14 37 3 45 32 7 26 -15 26
-38 0z"/>
<path d="M530 1457 c0 -24 24 -47 39 -38 16 10 8 26 -20 41 -14 8 -19 7 -19
-3z"/>
<path d="M780 1459 c0 -5 10 -19 21 -30 20 -20 23 -20 31 -5 5 9 7 20 4 25 -8
12 -56 20 -56 10z"/>
<path d="M1875 1460 c3 -5 15 -10 26 -10 10 0 19 5 19 10 0 6 -12 10 -26 10
-14 0 -23 -4 -19 -10z"/>
<path d="M397 1443 c-14 -4 -16 -8 -6 -19 17 -21 58 -18 55 4 -3 18 -19 23
-49 15z"/>
<path d="M706 1426 c8 -20 31 -27 37 -11 7 17 -1 25 -24 25 -12 0 -16 -5 -13
-14z"/>
<path d="M630 1415 c7 -8 16 -12 21 -9 13 8 1 24 -18 24 -13 0 -13 -3 -3 -15z"/>
<path d="M1840 1422 c0 -14 11 -21 26 -15 8 3 11 9 8 14 -7 11 -34 12 -34 1z"/>
<path d="M1960 1400 c-9 -16 -8 -20 5 -20 8 0 15 2 15 4 0 2 3 11 6 20 9 23
-13 20 -26 -4z"/>
<path d="M1887 1396 c-21 -22 -22 -36 -2 -36 17 0 29 22 23 41 -3 8 -9 6 -21
-5z"/>
<path d="M2043 1403 c-14 -5 -18 -33 -5 -33 4 0 13 5 20 12 22 22 14 33 -15
21z"/>
<path d="M447 1355 l-27 -24 34 -6 c20 -4 43 -2 57 6 23 12 23 12 4 20 -11 4
-14 8 -7 8 6 1 12 6 12 11 0 19 -45 9 -73 -15z"/>
<path d="M963 1368 c-11 -14 -34 -98 -26 -98 2 0 17 7 33 15 31 16 50 43 50
71 0 14 -3 14 -15 4 -13 -11 -14 -10 -9 4 7 19 -19 22 -33 4z"/>
<path d="M1800 1365 c-10 -13 -11 -18 -1 -28 10 -9 15 -8 27 7 8 11 14 23 14
28 0 14 -27 9 -40 -7z"/>
<path d="M1560 1355 c-1 -11 -4 -14 -7 -7 -7 17 -23 5 -23 -19 0 -11 7 -34 17
-52 l16 -32 13 35 c17 46 17 53 -1 76 -14 19 -14 19 -15 -1z"/>
<path d="M2080 1360 c0 -5 6 -10 14 -10 8 0 18 5 21 10 3 6 -3 10 -14 10 -12
0 -21 -4 -21 -10z"/>
<path d="M590 1331 c0 -17 44 -41 75 -41 23 0 27 3 15 10 -12 8 -12 10 -1 10
11 0 11 3 1 15 -14 16 -90 21 -90 6z"/>
<path d="M850 1311 c0 -42 15 -56 28 -26 13 29 7 52 -13 52 -9 0 -15 -10 -15
-26z"/>
<path d="M1965 1330 c3 -5 11 -10 16 -10 6 0 7 5 4 10 -3 6 -11 10 -16 10 -6
0 -7 -4 -4 -10z"/>
<path d="M2020 1331 c0 -6 5 -13 10 -16 6 -3 10 1 10 9 0 9 -4 16 -10 16 -5 0
-10 -4 -10 -9z"/>
<path d="M2090 1320 c0 -5 7 -10 16 -10 8 0 12 5 9 10 -3 6 -10 10 -16 10 -5
0 -9 -4 -9 -10z"/>
<path d="M1971 1297 c-11 -14 -6 -27 10 -27 5 0 13 9 19 20 8 16 8 20 -3 20
-8 0 -20 -6 -26 -13z"/>
<path d="M1670 1283 c0 -14 -2 -15 -9 -4 -17 27 -22 -8 -5 -40 12 -25 18 -29
25 -18 12 19 11 66 -1 74 -5 3 -10 -2 -10 -12z"/>
<path d="M1885 1281 c-10 -17 12 -21 25 -6 10 12 10 15 -3 15 -9 0 -18 -4 -22
-9z"/>
<path d="M760 1245 c0 -41 12 -45 29 -9 12 28 7 44 -15 44 -9 0 -14 -11 -14
-35z"/>
<path d="M1774 1255 c-4 -9 0 -24 10 -33 15 -15 16 -14 16 10 0 32 -17 46 -26
23z"/>
<path d="M520 1250 c-13 -9 -13 -11 0 -20 22 -14 47 -12 53 4 10 26 -23 36
-53 16z"/>
<path d="M653 1228 c-15 -19 -23 -58 -12 -58 15 0 51 40 47 53 -6 17 -24 19
-35 5z"/>
<path d="M1937 1216 c-5 -13 12 -26 34 -26 16 0 10 19 -10 29 -14 8 -20 7 -24
-3z"/>
<path d="M1850 1206 c0 -7 7 -19 15 -26 13 -11 15 -8 15 14 0 16 -5 26 -15 26
-8 0 -15 -6 -15 -14z"/>
<path d="M630 365 c0 -108 1 -115 20 -115 19 0 20 7 20 115 0 108 -1 115 -20
115 -19 0 -20 -7 -20 -115z"/>
<path d="M727 474 c-15 -15 -7 -45 11 -42 9 2 17 12 17 22 0 20 -16 31 -28 20z"/>
<path d="M465 458 c-2 -7 -20 -55 -40 -106 -19 -52 -35 -96 -35 -98 0 -2 9 -4
20 -4 13 0 24 10 30 25 8 22 16 25 55 25 39 0 47 -3 55 -25 6 -15 17 -25 30
-25 11 0 20 2 20 4 0 2 -18 50 -39 107 -35 93 -42 104 -65 107 -15 2 -28 -2
-31 -10z m48 -83 l16 -45 -34 0 -34 0 16 45 c8 25 16 45 18 45 2 0 10 -20 18
-45z"/>
<path d="M1450 361 l0 -111 50 0 c27 0 60 5 74 11 36 17 59 71 51 119 -10 57
-43 83 -115 88 l-60 4 0 -111z m112 52 c23 -20 24 -80 1 -105 -9 -10 -29 -18
-45 -18 l-28 0 0 70 c0 69 0 70 27 70 14 0 35 -7 45 -17z"/>
<path d="M1725 458 c-2 -7 -20 -55 -40 -106 -19 -52 -35 -96 -35 -98 0 -2 9
-4 20 -4 13 0 24 10 30 25 8 22 16 25 55 25 39 0 47 -3 55 -25 6 -15 17 -25
30 -25 11 0 20 2 20 4 0 2 -18 50 -39 107 -35 93 -42 104 -65 107 -15 2 -28
-2 -31 -10z m48 -83 l16 -45 -34 0 -34 0 16 45 c8 25 16 45 18 45 2 0 10 -20
18 -45z"/>
<path d="M1943 460 c-37 -15 -65 -69 -59 -115 16 -135 216 -122 216 15 0 82
-78 132 -157 100z m94 -52 c45 -42 17 -118 -44 -118 -39 0 -63 27 -63 71 0 63
61 90 107 47z"/>
<path d="M1103 400 c-47 -19 -58 -92 -20 -128 27 -26 73 -29 105 -6 41 28 15
49 -28 22 -15 -9 -25 -10 -37 -2 -36 23 -26 34 31 34 51 0 56 2 56 23 0 30
-11 44 -43 56 -33 13 -35 13 -64 1z m65 -42 c3 -15 -4 -18 -32 -18 -38 0 -44
8 -24 28 17 17 52 11 56 -10z"/>
<path d="M1327 403 c-4 -3 -23 -6 -42 -5 l-35 1 0 -74 c0 -68 2 -75 20 -75 17
0 20 7 20 48 0 58 10 75 41 70 22 -3 24 -9 27 -60 3 -50 6 -58 22 -58 18 0 20
7 20 58 0 32 -6 65 -12 74 -15 18 -51 31 -61 21z"/>
<path d="M720 325 c0 -68 2 -75 20 -75 18 0 20 7 20 75 0 68 -2 75 -20 75 -18
0 -20 -7 -20 -75z"/>
<path d="M795 383 c4 -10 16 -44 27 -76 17 -48 24 -58 41 -55 15 2 25 17 37
53 l16 49 19 -52 c27 -73 49 -68 81 17 29 77 29 81 5 81 -14 0 -23 -11 -31
-37 -18 -57 -26 -59 -40 -9 -15 54 -44 63 -60 19 -26 -70 -26 -71 -42 -23 -11
34 -20 46 -38 48 -19 3 -21 0 -15 -15z"/>
</g>
</svg>
